# xmcd CD database file
#
# Track frame offsets:
#	150
#	15385
#	35998
#	58574
#	78466
#	98965
#	119443
#	133718
#	155642
#	175432
#	191707
#	211795
#	234140
#	250184
#	269945
#	288632
#	303730
#
# Disc length: 4292 seconds
#
# Revision: 0
# Processed by: cddbd v1.5.2PL0 Copyright (c) Steve Scherf et al.
# Submitted via: CDex 1.51
#
DISCID=0010c211
DTITLE=Merengue Party Vol 2 - Merengue Party Vol 2
DYEAR=2000
DGENRE=Merengue
TTITLE0=Tofio Rosario - A ti te gusta
TTITLE1=Rubby Perez - No voy a llorar
TTITLE2=Eddy Herrera - Pegame tu vicio
TTITLE3=Juan Luis Guerra 440 - El niagara en bicicleta
TTITLE4=La Banda Chula - Si tu bouita
TTITLE5=Jossie Esteban - Lo dejariatodo
TTITLE6=Vizcaino - La americana
TTITLE7=Gilberto Santa Rosa - Que alguien me diga
TTITLE8=Son By Four - A puro dolor
TTITLE9=Jose Manuel el Sultan - Con una pinta asi
TTITLE10=Zacarias Ferreira - El triste
TTITLE11=Proyecto Uno - El tiburon
TTITLE12=Ilegales - Dame de eso
TTITLE13=El Simbolo - 123
TTITLE14=Soca Boys - Follow the leader
TTITLE15=King Africa - La bomba
TTITLE16=Ricky Martin - She bangs
EXTD=YEAR: 2000
EXTT0=
EXTT1=
EXTT2=
EXTT3=
EXTT4=
EXTT5=
EXTT6=
EXTT7=
EXTT8=
EXTT9=
EXTT10=
EXTT11=
EXTT12=
EXTT13=
EXTT14=
EXTT15=
EXTT16=
PLAYORDER=
